<?xml version="1.0" encoding="utf-8"?>
<!-- Generator: Adobe Illustrator 25.0.0, SVG Export Plug-In . SVG Version: 6.00 Build 0)  -->
<svg version="1.1" id="Layer_1" xmlns="http://www.w3.org/2000/svg" xmlns:xlink="http://www.w3.org/1999/xlink" x="0px" y="0px"
	 viewBox="20 130 480 240" style="enable-background:new 20 130 480 240;" xml:space="preserve">
<style type="text/css">
	.st0{fill:#FFFFFF;}
	.st1{fill:#42B1AE;}
	.st2{fill:#283048;}
</style>
<g>
	<g>
		<path class="st0" d="M25.48,302.68c1.92-0.32,3.81-0.48,5.68-0.48c1.87,0,3.76,0.16,5.68,0.48v21.92c0,2.19,0.17,3.99,0.52,5.4
			c0.35,1.41,0.88,2.53,1.6,3.36c0.72,0.83,1.61,1.41,2.68,1.76c1.07,0.35,2.32,0.52,3.76,0.52c1.97,0,3.63-0.19,4.96-0.56v-32.41
			c1.92-0.32,3.79-0.48,5.6-0.48c1.87,0,3.76,0.16,5.68,0.48v39.77c-1.71,0.59-3.96,1.16-6.76,1.72c-2.8,0.56-5.72,0.84-8.76,0.84
			c-2.72,0-5.33-0.21-7.84-0.64c-2.51-0.43-4.71-1.33-6.6-2.72c-1.89-1.39-3.4-3.41-4.52-6.08c-1.12-2.67-1.68-6.21-1.68-10.64
			V302.68z"/>
		<path class="st0" d="M71.73,302.6c0.75-0.16,1.48-0.27,2.2-0.32c0.72-0.05,1.53-0.08,2.44-0.08c1.49,0,3.01,0.16,4.56,0.48
			c0.16,0.27,0.31,0.65,0.44,1.16c0.13,0.51,0.27,1.05,0.4,1.64c0.13,0.59,0.24,1.16,0.32,1.72c0.08,0.56,0.15,1.03,0.2,1.4
			c0.48-0.85,1.07-1.69,1.76-2.52c0.69-0.83,1.53-1.56,2.52-2.2c0.99-0.64,2.09-1.16,3.32-1.56c1.23-0.4,2.59-0.6,4.08-0.6
			c2.29,0,4.44,0.43,6.44,1.28c2,0.85,3.75,2.15,5.24,3.88c1.49,1.73,2.65,3.91,3.48,6.52c0.83,2.61,1.24,5.71,1.24,9.28
			c0,3.47-0.51,6.58-1.52,9.32c-1.01,2.75-2.48,5.08-4.4,7c-1.92,1.92-4.27,3.4-7.04,4.44c-2.77,1.04-5.92,1.56-9.44,1.56
			c-0.91,0-1.8-0.04-2.68-0.12c-0.88-0.08-1.61-0.17-2.2-0.28v18.4c-1.01,0.16-1.99,0.27-2.92,0.32c-0.93,0.05-1.85,0.08-2.76,0.08
			c-0.91,0-1.83-0.03-2.76-0.08c-0.93-0.05-1.91-0.16-2.92-0.32V302.6z M83.09,335.24c1.44,0.43,3.09,0.64,4.96,0.64
			c3.31,0,5.84-1.07,7.6-3.2c1.76-2.13,2.64-5.36,2.64-9.68c0-1.65-0.13-3.19-0.4-4.6c-0.27-1.41-0.72-2.63-1.36-3.64
			c-0.64-1.01-1.45-1.81-2.44-2.4c-0.99-0.59-2.2-0.88-3.64-0.88c-1.33,0-2.47,0.25-3.4,0.76c-0.93,0.51-1.69,1.2-2.28,2.08
			c-0.59,0.88-1.01,1.91-1.28,3.08c-0.27,1.17-0.4,2.43-0.4,3.76V335.24z"/>
		<path class="st0" d="M120.38,311.32h-5.2l-0.4-1.6l14.96-19.12h1.84v12.08h9.68c0.16,0.8,0.27,1.52,0.32,2.16
			c0.05,0.64,0.08,1.31,0.08,2c0,0.75-0.03,1.47-0.08,2.16c-0.05,0.69-0.16,1.47-0.32,2.32h-9.68v16.24c0,1.65,0.13,2.99,0.4,4
			c0.27,1.01,0.65,1.81,1.16,2.4c0.51,0.59,1.13,0.99,1.88,1.2c0.75,0.21,1.63,0.32,2.64,0.32c0.8,0,1.59-0.07,2.36-0.2
			c0.77-0.13,1.45-0.25,2.04-0.36c0.37,1.01,0.64,2.07,0.8,3.16c0.16,1.09,0.24,2.07,0.24,2.92c0,0.59-0.01,1.08-0.04,1.48
			c-0.03,0.4-0.07,0.79-0.12,1.16c-2.45,0.59-4.99,0.88-7.6,0.88c-4.85,0-8.56-1.13-11.12-3.4c-2.56-2.27-3.84-5.96-3.84-11.08
			V311.32z"/>
		<path class="st0" d="M152.14,311.32h-5.36c-0.16-0.69-0.28-1.43-0.36-2.2c-0.08-0.77-0.12-1.51-0.12-2.2
			c0-1.44,0.16-2.85,0.48-4.24h16.48v41.37c-1.92,0.32-3.79,0.48-5.6,0.48c-1.76,0-3.6-0.16-5.52-0.48V311.32z M150.46,295.72
			c-0.32-1.81-0.48-3.6-0.48-5.36c0-1.71,0.16-3.49,0.48-5.36c0.91-0.16,1.88-0.28,2.92-0.36c1.04-0.08,1.99-0.12,2.84-0.12
			c0.91,0,1.89,0.04,2.96,0.12c1.07,0.08,2.05,0.2,2.96,0.36c0.16,0.91,0.27,1.8,0.32,2.68c0.05,0.88,0.08,1.77,0.08,2.68
			c0,0.85-0.03,1.73-0.08,2.64c-0.05,0.91-0.16,1.81-0.32,2.72c-0.91,0.16-1.88,0.27-2.92,0.32c-1.04,0.05-2.01,0.08-2.92,0.08
			c-0.85,0-1.81-0.03-2.88-0.08C152.35,295.98,151.37,295.88,150.46,295.72z"/>
		<path class="st0" d="M174.47,302.68c0.75-0.16,1.49-0.28,2.24-0.36c0.75-0.08,1.57-0.12,2.48-0.12c0.91,0,1.71,0.04,2.4,0.12
			c0.69,0.08,1.41,0.2,2.16,0.36c0.16,0.27,0.31,0.65,0.44,1.16c0.13,0.51,0.25,1.04,0.36,1.6c0.11,0.56,0.2,1.11,0.28,1.64
			c0.08,0.53,0.15,0.99,0.2,1.36c0.43-0.8,0.99-1.6,1.68-2.4c0.69-0.8,1.52-1.52,2.48-2.16c0.96-0.64,2.04-1.16,3.24-1.56
			c1.2-0.4,2.55-0.6,4.04-0.6c6.45,0,10.59,2.45,12.4,7.36c1.07-1.97,2.57-3.69,4.52-5.16c1.95-1.47,4.41-2.2,7.4-2.2
			c4.69,0,8.15,1.29,10.36,3.88c2.21,2.59,3.32,6.63,3.32,12.12v26.33c-1.92,0.32-3.81,0.48-5.68,0.48c-1.87,0-3.76-0.16-5.68-0.48
			v-23.36c0-2.88-0.36-5.09-1.08-6.64c-0.72-1.55-2.17-2.32-4.36-2.32c-0.91,0-1.8,0.13-2.68,0.4c-0.88,0.27-1.68,0.76-2.4,1.48
			c-0.72,0.72-1.31,1.73-1.76,3.04c-0.45,1.31-0.68,3-0.68,5.08v22.32c-1.92,0.32-3.81,0.48-5.68,0.48c-1.87,0-3.76-0.16-5.68-0.48
			v-23.36c0-2.88-0.36-5.09-1.08-6.64c-0.72-1.55-2.17-2.32-4.36-2.32c-0.91,0-1.81,0.13-2.72,0.4c-0.91,0.27-1.72,0.79-2.44,1.56
			c-0.72,0.77-1.29,1.85-1.72,3.24c-0.43,1.39-0.64,3.2-0.64,5.44v21.68c-1.92,0.32-3.81,0.48-5.68,0.48
			c-1.87,0-3.76-0.16-5.68-0.48V302.68z"/>
		<path class="st0" d="M253.84,326.84c0.21,3.2,1.33,5.52,3.36,6.96c2.03,1.44,4.69,2.16,8,2.16c1.81,0,3.67-0.17,5.56-0.52
			c1.89-0.35,3.69-0.84,5.4-1.48c0.59,1.07,1.09,2.35,1.52,3.84c0.43,1.49,0.67,3.09,0.72,4.8c-4.16,1.6-8.86,2.4-14.08,2.4
			c-3.84,0-7.14-0.53-9.88-1.6c-2.75-1.07-4.99-2.55-6.72-4.44c-1.73-1.89-3.01-4.15-3.84-6.76c-0.83-2.61-1.24-5.47-1.24-8.56
			c0-3.04,0.43-5.89,1.28-8.56c0.85-2.67,2.12-4.99,3.8-6.96c1.68-1.97,3.76-3.53,6.24-4.68c2.48-1.15,5.37-1.72,8.68-1.72
			c2.88,0,5.44,0.51,7.68,1.52c2.24,1.01,4.15,2.4,5.72,4.16c1.57,1.76,2.76,3.85,3.56,6.28c0.8,2.43,1.2,5.03,1.2,7.8
			c0,1.01-0.04,2.01-0.12,3c-0.08,0.99-0.17,1.77-0.28,2.36H253.84z M270.08,318.92c-0.11-2.56-0.81-4.63-2.12-6.2
			c-1.31-1.57-3.13-2.36-5.48-2.36c-2.67,0-4.69,0.75-6.08,2.24c-1.39,1.49-2.21,3.6-2.48,6.32H270.08z"/>
		<path class="st0" d="M292.01,311.32h-5.36c-0.16-0.69-0.28-1.43-0.36-2.2c-0.08-0.77-0.12-1.51-0.12-2.2
			c0-1.44,0.16-2.85,0.48-4.24h16.48v41.37c-1.92,0.32-3.79,0.48-5.6,0.48c-1.76,0-3.6-0.16-5.52-0.48V311.32z M290.33,295.72
			c-0.32-1.81-0.48-3.6-0.48-5.36c0-1.71,0.16-3.49,0.48-5.36c0.91-0.16,1.88-0.28,2.92-0.36c1.04-0.08,1.99-0.12,2.84-0.12
			c0.91,0,1.89,0.04,2.96,0.12c1.07,0.08,2.05,0.2,2.96,0.36c0.16,0.91,0.27,1.8,0.32,2.68c0.05,0.88,0.08,1.77,0.08,2.68
			c0,0.85-0.03,1.73-0.08,2.64c-0.05,0.91-0.16,1.81-0.32,2.72c-0.91,0.16-1.88,0.27-2.92,0.32c-1.04,0.05-2.01,0.08-2.92,0.08
			c-0.85,0-1.81-0.03-2.88-0.08C292.22,295.98,291.24,295.88,290.33,295.72z"/>
		<path class="st0" d="M317.05,311.32h-6.56c-0.16-0.85-0.27-1.63-0.32-2.32c-0.05-0.69-0.08-1.41-0.08-2.16
			c0-0.69,0.03-1.36,0.08-2c0.05-0.64,0.16-1.36,0.32-2.16h6.56v-2c0-2.56,0.39-4.84,1.16-6.84c0.77-2,1.88-3.68,3.32-5.04
			c1.44-1.36,3.16-2.4,5.16-3.12c2-0.72,4.2-1.08,6.6-1.08c1.6,0,2.95,0.07,4.04,0.2c1.09,0.13,2.28,0.39,3.56,0.76
			c-0.11,1.76-0.28,3.35-0.52,4.76c-0.24,1.41-0.63,2.81-1.16,4.2c-0.59-0.11-1.2-0.23-1.84-0.36c-0.64-0.13-1.49-0.2-2.56-0.2
			c-1.87,0-3.39,0.44-4.56,1.32c-1.17,0.88-1.81,2.76-1.92,5.64v1.76h9.6c0.16,0.85,0.27,1.63,0.32,2.32
			c0.05,0.69,0.08,1.41,0.08,2.16c0,0.69-0.03,1.36-0.08,2c-0.05,0.64-0.16,1.36-0.32,2.16h-9.6v32.73
			c-1.92,0.32-3.79,0.48-5.6,0.48c-1.87,0-3.76-0.16-5.68-0.48V311.32z"/>
		<path class="st0" d="M341.22,302.68c1.23-0.27,2.31-0.41,3.24-0.44c0.93-0.03,1.8-0.04,2.6-0.04c1.07,0,2.16,0.03,3.28,0.08
			c1.12,0.05,2.13,0.19,3.04,0.4l8.64,36.09l9.76-36.09c1.76-0.32,3.57-0.48,5.44-0.48c0.8,0,1.65,0.01,2.56,0.04
			c0.91,0.03,2.03,0.17,3.36,0.44l-15.44,51.13c-0.64,2.03-1.4,3.71-2.28,5.04c-0.88,1.33-1.88,2.37-3,3.12
			c-1.12,0.75-2.37,1.27-3.76,1.56c-1.39,0.29-2.88,0.44-4.48,0.44c-1.49,0-2.84-0.09-4.04-0.28c-1.2-0.19-2.39-0.44-3.56-0.76
			c-0.05-0.27-0.08-0.49-0.08-0.68c0-0.19,0-0.39,0-0.6c0-1.28,0.15-2.49,0.44-3.64c0.29-1.15,0.65-2.25,1.08-3.32
			c0.48,0.16,1.12,0.31,1.92,0.44c0.8,0.13,1.6,0.2,2.4,0.2c0.64,0,1.28-0.04,1.92-0.12c0.64-0.08,1.27-0.32,1.88-0.72
			c0.61-0.4,1.19-1.03,1.72-1.88c0.53-0.85,1.01-2.05,1.44-3.6l1.36-4.96c-0.59,0.05-1.24,0.09-1.96,0.12
			c-0.72,0.03-1.45,0.04-2.2,0.04c-0.59,0-1.15,0-1.68,0c-0.53,0-1.01-0.05-1.44-0.16L341.22,302.68z"/>
		<path class="st1" d="M389.47,344.04c-0.32-1.97-0.48-3.92-0.48-5.84s0.16-3.89,0.48-5.92c1.97-0.32,3.92-0.48,5.84-0.48
			s3.89,0.16,5.92,0.48c0.32,2.03,0.48,3.97,0.48,5.84c0,1.97-0.16,3.95-0.48,5.92c-2.03,0.32-3.97,0.48-5.84,0.48
			C393.41,344.52,391.44,344.36,389.47,344.04z"/>
		<path class="st1" d="M414.75,311.32h-5.36c-0.16-0.69-0.28-1.43-0.36-2.2c-0.08-0.77-0.12-1.51-0.12-2.2
			c0-1.44,0.16-2.85,0.48-4.24h16.48v41.37c-1.92,0.32-3.79,0.48-5.6,0.48c-1.76,0-3.6-0.16-5.52-0.48V311.32z M413.07,295.72
			c-0.32-1.81-0.48-3.6-0.48-5.36c0-1.71,0.16-3.49,0.48-5.36c0.91-0.16,1.88-0.28,2.92-0.36c1.04-0.08,1.99-0.12,2.84-0.12
			c0.91,0,1.89,0.04,2.96,0.12c1.07,0.08,2.05,0.2,2.96,0.36c0.16,0.91,0.27,1.8,0.32,2.68c0.05,0.88,0.08,1.77,0.08,2.68
			c0,0.85-0.03,1.73-0.08,2.64c-0.05,0.91-0.16,1.81-0.32,2.72c-0.91,0.16-1.88,0.27-2.92,0.32c-1.04,0.05-2.01,0.08-2.92,0.08
			c-0.85,0-1.81-0.03-2.88-0.08C414.96,295.98,413.98,295.88,413.07,295.72z"/>
		<path class="st1" d="M454.6,345.01c-3.36,0-6.28-0.55-8.76-1.64c-2.48-1.09-4.53-2.61-6.16-4.56c-1.63-1.95-2.85-4.23-3.68-6.84
			c-0.83-2.61-1.24-5.44-1.24-8.48c0-3.04,0.41-5.89,1.24-8.56c0.83-2.67,2.05-4.97,3.68-6.92c1.63-1.95,3.68-3.48,6.16-4.6
			c2.48-1.12,5.4-1.68,8.76-1.68c3.36,0,6.29,0.56,8.8,1.68c2.51,1.12,4.59,2.65,6.24,4.6c1.65,1.95,2.88,4.25,3.68,6.92
			c0.8,2.67,1.2,5.52,1.2,8.56c0,3.04-0.4,5.87-1.2,8.48c-0.8,2.61-2.03,4.89-3.68,6.84c-1.65,1.95-3.73,3.47-6.24,4.56
			C460.89,344.46,457.96,345.01,454.6,345.01z M454.6,336.36c2.99,0,5.13-1.11,6.44-3.32c1.31-2.21,1.96-5.4,1.96-9.56
			c0-4.16-0.65-7.35-1.96-9.56c-1.31-2.21-3.45-3.32-6.44-3.32c-2.93,0-5.06,1.11-6.36,3.32c-1.31,2.21-1.96,5.4-1.96,9.56
			c0,4.16,0.65,7.35,1.96,9.56C449.54,335.26,451.66,336.36,454.6,336.36z"/>
	</g>
	<g>
		<path class="st0" d="M272.96,211.47c0,9.6-7.78,17.39-17.39,17.39h-10.66c-9.6,0-17.39-7.78-17.39-17.39v-75.44h-32.98v72.28
			c0,29.29,23.75,53.04,53.04,53.04h4.82c29.29,0,53.04-23.75,53.04-53.04v-42.19h-32.49V211.47z"/>
		<polygon class="st1" points="270.87,136.03 305.45,166.12 305.45,136.03 		"/>
	</g>
</g>
</svg>
